<svg width="24" height="24" viewBox="0 0 24 24" fill="none" xmlns="http://www.w3.org/2000/svg">
<path d="M15 22.75H9C3.57 22.75 1.25 20.43 1.25 15V9C1.25 3.57 3.57 1.25 9 1.25H15C20.43 1.25 22.75 3.57 22.75 9V15C22.75 20.43 20.43 22.75 15 22.75ZM9 2.75C4.39 2.75 2.75 4.39 2.75 9V15C2.75 19.61 4.39 21.25 9 21.25H15C19.61 21.25 21.25 19.61 21.25 15V9C21.25 4.39 19.61 2.75 15 2.75H9Z" fill="#8FA7B3"/>
<path d="M10.5804 15.5801C10.3804 15.5801 10.1904 15.5001 10.0504 15.3601L7.22043 12.5301C6.93043 12.2401 6.93043 11.7601 7.22043 11.4701C7.51043 11.1801 7.99043 11.1801 8.28043 11.4701L10.5804 13.7701L15.7204 8.6301C16.0104 8.3401 16.4904 8.3401 16.7804 8.6301C17.0704 8.9201 17.0704 9.4001 16.7804 9.6901L11.1104 15.3601C10.9704 15.5001 10.7804 15.5801 10.5804 15.5801Z" fill="#8FA7B3"/>
</svg>
